STARTFONT 2.1
FONT -FontForge-8BIT WONDER-Book-R-Normal--20-190-75-75-P-188-ISO10646-1
SIZE 19 75 75
FONTBOUNDINGBOX 28 20 0 0
COMMENT "Generated by fontforge, http://fontforge.sourceforge.net"
COMMENT "(c)2001 Joiro Hatgaya | Freeware, but look at readme file. | JOIRO@HOTMAIL.COM"
STARTPROPERTIES 39
FOUNDRY "FontForge"
FAMILY_NAME "8BIT WONDER"
WEIGHT_NAME "Book"
SLANT "R"
SETWIDTH_NAME "Normal"
ADD_STYLE_NAME ""
PIXEL_SIZE 20
POINT_SIZE 190
RESOLUTION_X 75
RESOLUTION_Y 75
SPACING "P"
AVERAGE_WIDTH 188
CHARSET_REGISTRY "ISO10646"
CHARSET_ENCODING "1"
FONTNAME_REGISTRY ""
CHARSET_COLLECTIONS "ISO10646-1"
FONT_NAME "8BITWONDERNominal"
FACE_NAME "8BIT WONDER Nominal"
COPYRIGHT "(c)2001 Joiro Hatgaya | Freeware, but look at readme file. | JOIRO@HOTMAIL.COM"
FONT_VERSION "0.70 | 26.01.2001"
FONT_ASCENT 20
FONT_DESCENT 0
UNDERLINE_POSITION 0
UNDERLINE_THICKNESS 0
X_HEIGHT 16
CAP_HEIGHT 16
RAW_ASCENT 1000
RAW_DESCENT 0
NORM_SPACE 10
RELATIVE_WEIGHT 40
RELATIVE_SETWIDTH 50
SUPERSCRIPT_X 0
SUPERSCRIPT_Y 9
SUPERSCRIPT_SIZE 13
SUBSCRIPT_X 0
SUBSCRIPT_Y 2
SUBSCRIPT_SIZE 13
AVG_LOWERCASE_WIDTH 203
AVG_UPPERCASE_WIDTH 203
ENDPROPERTIES
CHARS 72
STARTCHAR space
ENCODING 32
SWIDTH 500 0
DWIDTH 10 0
BBX 1 1 0 0
BITMAP
00
ENDCHAR
STARTCHAR numbersign
ENCODING 35
SWIDTH 1000 0
DWIDTH 20 0
BBX 20 20 0 0
BITMAP
FFFFF0
FFFFF0
FFFFF0
E00070
E00070
E00070
E00070
E00070
E00070
E00070
E00070
E00070
E00070
E00070
E00070
E00070
E00070
FFFFF0
FFFFF0
FFFFF0
ENDCHAR
STARTCHAR parenleft
ENCODING 40
SWIDTH 500 0
DWIDTH 10 0
BBX 10 17 0 0
BITMAP
3FC0
3FC0
FFC0
FE00
FE00
FE00
FE00
FE00
FE00
FE00
FE00
FE00
FE00
FE00
FFC0
3FC0
3FC0
ENDCHAR
STARTCHAR parenright
ENCODING 41
SWIDTH 500 0
DWIDTH 10 0
BBX 10 17 0 0
BITMAP
FF00
FF00
FFC0
1FC0
1FC0
1FC0
1FC0
1FC0
1FC0
1FC0
1FC0
1FC0
1FC0
1FC0
FFC0
FF00
FF00
ENDCHAR
STARTCHAR asterisk
ENCODING 42
SWIDTH 1000 0
DWIDTH 20 0
BBX 17 17 0 0
BITMAP
400300
E00780
E00300
000000
1E3800
1E3800
0C3800
01C000
01C000
01C000
0C1800
1E3800
1E3800
0C1800
E00300
E00780
600300
ENDCHAR
STARTCHAR zero
ENCODING 48
SWIDTH 1000 0
DWIDTH 20 0
BBX 17 17 1 0
BITMAP
3FFE00
3FFE00
FFFF80
FE3F80
FE3F80
FE3F80
FE3F80
FFFF80
FFFF80
FFFF80
FE3F80
FE3F80
FE3F80
FE3F80
FFFF80
3FFE00
3FFE00
ENDCHAR
STARTCHAR one
ENCODING 49
SWIDTH 500 0
DWIDTH 10 0
BBX 8 17 0 0
BITMAP
FE
FE
FF
3F
3F
3F
3F
3F
3F
3F
3F
3F
3F
3F
3F
3F
3F
ENDCHAR
STARTCHAR two
ENCODING 50
SWIDTH 1000 0
DWIDTH 20 0
BBX 17 17 1 0
BITMAP
FFFE00
FFFE00
FFFF80
003F80
003F80
003F80
003F80
3FFF80
3FFF80
FFFE00
FE0000
FE0000
FE0000
FE0000
FFFF80
FFFF80
FFFF80
ENDCHAR
STARTCHAR three
ENCODING 51
SWIDTH 1000 0
DWIDTH 20 0
BBX 17 17 1 0
BITMAP
FFFE00
FFFE00
FFFE00
003F80
003F80
003F80
003F80
07FE00
07FE00
07FE00
003F80
003F80
003F80
003F80
FFFE00
FFFE00
FFFE00
ENDCHAR
STARTCHAR four
ENCODING 52
SWIDTH 1000 0
DWIDTH 20 0
BBX 17 17 1 0
BITMAP
FE3F80
FE3F80
FE3F80
FE3F80
FE3F80
FE3F80
FE3F80
FFFF80
FFFF80
3FFF80
003F80
003F80
003F80
003F80
003F80
003F80
003F80
ENDCHAR
STARTCHAR five
ENCODING 53
SWIDTH 1000 0
DWIDTH 20 0
BBX 17 17 1 0
BITMAP
FFFF80
FFFF80
FFFF80
FE0000
FE0000
FE0000
FE0000
FFFE00
FFFE00
3FFF80
003F80
003F80
003F80
003F80
FFFF80
FFFE00
FFFE00
ENDCHAR
STARTCHAR six
ENCODING 54
SWIDTH 1000 0
DWIDTH 20 0
BBX 17 17 1 0
BITMAP
3FFF80
3FFF80
FFFF80
FE0000
FE0000
FE0000
FE0000
FFFE00
FFFE00
FFFF80
FE3F80
FE3F80
FE3F80
FE3F80
FFFF80
3FFE00
3FFE00
ENDCHAR
STARTCHAR seven
ENCODING 55
SWIDTH 1000 0
DWIDTH 20 0
BBX 17 17 1 0
BITMAP
FFFE00
FFFE00
FFFF80
003F80
003F80
003F80
003F80
003F80
003F80
003F80
003F80
003F80
003F80
003F80
003F80
003F80
003F80
ENDCHAR
STARTCHAR eight
ENCODING 56
SWIDTH 1000 0
DWIDTH 20 0
BBX 17 17 1 0
BITMAP
3FFE00
3FFE00
3FFE00
FE3F80
FE3F80
FE3F80
FE3F80
3FFE00
3FFE00
3FFE00
FE3F80
FE3F80
FE3F80
FE3F80
3FFE00
3FFE00
3FFE00
ENDCHAR
STARTCHAR nine
ENCODING 57
SWIDTH 1000 0
DWIDTH 20 0
BBX 17 17 1 0
BITMAP
3FFE00
3FFE00
FFFF80
FE3F80
FE3F80
FE3F80
FE3F80
FFFF80
FFFF80
3FFF80
003F80
003F80
003F80
003F80
FFFF80
FFFE00
FFFE00
ENDCHAR
STARTCHAR A
ENCODING 65
SWIDTH 1000 0
DWIDTH 20 0
BBX 17 17 1 0
BITMAP
3FFE00
3FFE00
FFFF80
FE3F80
FE3F80
FE3F80
FE3F80
FFFF80
FFFF80
FFFF80
FE3F80
FE3F80
FE3F80
FE3F80
FE3F80
FE3F80
FE3F80
ENDCHAR
STARTCHAR B
ENCODING 66
SWIDTH 1000 0
DWIDTH 20 0
BBX 17 17 1 0
BITMAP
FFFE00
FFFE00
FFFE00
FE3F80
FE3F80
FE3F80
FE3F80
FFFE00
FFFE00
FFFE00
FE3F80
FE3F80
FE3F80
FE3F80
FFFE00
FFFE00
FFFE00
ENDCHAR
STARTCHAR C
ENCODING 67
SWIDTH 1000 0
DWIDTH 20 0
BBX 17 17 1 0
BITMAP
3FFF80
3FFF80
FFFF80
FE0000
FE0000
FE0000
FE0000
FE0000
FE0000
FE0000
FE0000
FE0000
FE0000
FE0000
FFFF80
3FFF80
3FFF80
ENDCHAR
STARTCHAR D
ENCODING 68
SWIDTH 1000 0
DWIDTH 20 0
BBX 17 17 1 0
BITMAP
FFFE00
FFFE00
FFFF80
FE3F80
FE3F80
FE3F80
FE3F80
FE3F80
FE3F80
FE3F80
FE3F80
FE3F80
FE3F80
FE3F80
FFFF80
FFFE00
FFFE00
ENDCHAR
STARTCHAR E
ENCODING 69
SWIDTH 1000 0
DWIDTH 20 0
BBX 17 17 1 0
BITMAP
3FFF80
3FFF80
FFFF80
FE0000
FE0000
FE0000
FE0000
FFF000
FFF000
FFF000
FE0000
FE0000
FE0000
FE0000
FFFF80
3FFF80
3FFF80
ENDCHAR
STARTCHAR F
ENCODING 70
SWIDTH 1000 0
DWIDTH 20 0
BBX 17 17 1 0
BITMAP
3FFF80
3FFF80
FFFF80
FE0000
FE0000
FE0000
FE0000
FFF000
FFF000
FFF000
FE0000
FE0000
FE0000
FE0000
FE0000
FE0000
FE0000
ENDCHAR
STARTCHAR G
ENCODING 71
SWIDTH 1000 0
DWIDTH 20 0
BBX 17 17 1 0
BITMAP
3FFF80
3FFF80
FFFF80
FE0000
FE0000
FE0000
FE0000
FEFF80
FEFF80
FEFF80
FE3F80
FE3F80
FE3F80
FE3F80
FFFF80
3FFF80
3FFF80
ENDCHAR
STARTCHAR H
ENCODING 72
SWIDTH 1000 0
DWIDTH 20 0
BBX 17 17 1 0
BITMAP
FE3F80
FE3F80
FE3F80
FE3F80
FE3F80
FE3F80
FE3F80
FFFF80
FFFF80
FFFF80
FE3F80
FE3F80
FE3F80
FE3F80
FE3F80
FE3F80
FE3F80
ENDCHAR
STARTCHAR I
ENCODING 73
SWIDTH 500 0
DWIDTH 10 0
BBX 7 17 1 0
BITMAP
FE
FE
FE
FE
FE
FE
FE
FE
FE
FE
FE
FE
FE
FE
FE
FE
FE
ENDCHAR
STARTCHAR J
ENCODING 74
SWIDTH 1000 0
DWIDTH 20 0
BBX 17 17 1 0
BITMAP
003F80
003F80
003F80
003F80
003F80
003F80
003F80
003F80
003F80
003F80
003F80
003F80
003F80
003F80
FFFF80
FFFE00
FFFE00
ENDCHAR
STARTCHAR K
ENCODING 75
SWIDTH 1000 0
DWIDTH 20 0
BBX 17 17 1 0
BITMAP
FE3F80
FE3F80
FE3F80
FE3F80
FE3F80
FE3F80
FE3F80
FFFE00
FFFE00
FFFE00
FE3F80
FE3F80
FE3F80
FE3F80
FE3F80
FE3F80
FE3F80
ENDCHAR
STARTCHAR L
ENCODING 76
SWIDTH 1000 0
DWIDTH 20 0
BBX 17 17 1 0
BITMAP
FE0000
FE0000
FE0000
FE0000
FE0000
FE0000
FE0000
FE0000
FE0000
FE0000
FE0000
FE0000
FE0000
FE0000
FFFF80
FFFF80
FFFF80
ENDCHAR
STARTCHAR M
ENCODING 77
SWIDTH 1500 0
DWIDTH 30 0
BBX 27 17 1 0
BITMAP
FFFFFF80
FFFFFF80
FFFFFFE0
FE3F8FE0
FE3F8FE0
FE3F8FE0
FE3F8FE0
FE3F8FE0
FE3F8FE0
FE3F8FE0
FE3F8FE0
FE3F8FE0
FE3F8FE0
FE3F8FE0
FE3F8FE0
FE3F8FE0
FE3F8FE0
ENDCHAR
STARTCHAR N
ENCODING 78
SWIDTH 1000 0
DWIDTH 20 0
BBX 17 17 1 0
BITMAP
FFFE00
FFFE00
FFFF80
FE3F80
FE3F80
FE3F80
FE3F80
FE3F80
FE3F80
FE3F80
FE3F80
FE3F80
FE3F80
FE3F80
FE3F80
FE3F80
FE3F80
ENDCHAR
STARTCHAR O
ENCODING 79
SWIDTH 1000 0
DWIDTH 20 0
BBX 17 17 1 0
BITMAP
3FFE00
3FFE00
FFFF80
FE3F80
FE3F80
FE3F80
FE3F80
FE3F80
FE3F80
FE3F80
FE3F80
FE3F80
FE3F80
FE3F80
FFFF80
3FFE00
3FFE00
ENDCHAR
STARTCHAR P
ENCODING 80
SWIDTH 1000 0
DWIDTH 20 0
BBX 17 17 1 0
BITMAP
FFFE00
FFFE00
FFFF80
FE3F80
FE3F80
FE3F80
FE3F80
FFFF80
FFFF80
FFFE00
FE0000
FE0000
FE0000
FE0000
FE0000
FE0000
FE0000
ENDCHAR
STARTCHAR Q
ENCODING 81
SWIDTH 1000 0
DWIDTH 20 0
BBX 17 17 1 0
BITMAP
3FFE00
3FFE00
FFFF80
FE3F80
FE3F80
FE3F80
FE3F80
FE3F80
FE3F80
FE3F80
FE3F80
FE3F80
FE3F80
FE3F80
FFFF80
3FFE00
3FFE00
ENDCHAR
STARTCHAR R
ENCODING 82
SWIDTH 1000 0
DWIDTH 20 0
BBX 17 17 1 0
BITMAP
FFFE00
FFFE00
FFFE00
FE3F80
FE3F80
FE3F80
FE3F80
FFFE00
FFFE00
FFFE00
FE3F80
FE3F80
FE3F80
FE3F80
FE3F80
FE3F80
FE3F80
ENDCHAR
STARTCHAR S
ENCODING 83
SWIDTH 1000 0
DWIDTH 20 0
BBX 17 17 1 0
BITMAP
3FFF80
3FFF80
FFFF80
FE0000
FE0000
FE0000
FE0000
FFFE00
FFFE00
3FFF80
003F80
003F80
003F80
003F80
FFFF80
FFFE00
FFFE00
ENDCHAR
STARTCHAR T
ENCODING 84
SWIDTH 1000 0
DWIDTH 20 0
BBX 17 17 1 0
BITMAP
FFFF80
FFFF80
FFFF80
07F000
07F000
07F000
07F000
07F000
07F000
07F000
07F000
07F000
07F000
07F000
07F000
07F000
07F000
ENDCHAR
STARTCHAR U
ENCODING 85
SWIDTH 1000 0
DWIDTH 20 0
BBX 17 17 1 0
BITMAP
FE3F80
FE3F80
FE3F80
FE3F80
FE3F80
FE3F80
FE3F80
FE3F80
FE3F80
FE3F80
FE3F80
FE3F80
FE3F80
FE3F80
FFFF80
3FFE00
3FFE00
ENDCHAR
STARTCHAR V
ENCODING 86
SWIDTH 1000 0
DWIDTH 20 0
BBX 17 17 1 0
BITMAP
FE3F80
FE3F80
FE3F80
FE3F80
FE3F80
FE3F80
FE3F80
FE3F80
FE3F80
FE3F80
FE3F80
FE3F80
FE3F80
FE3F80
FFFF80
FFFE00
FFFE00
ENDCHAR
STARTCHAR W
ENCODING 87
SWIDTH 1500 0
DWIDTH 30 0
BBX 27 17 1 0
BITMAP
FE3F8FE0
FE3F8FE0
FE3F8FE0
FE3F8FE0
FE3F8FE0
FE3F8FE0
FE3F8FE0
FE3F8FE0
FE3F8FE0
FE3F8FE0
FE3F8FE0
FE3F8FE0
FE3F8FE0
FE3F8FE0
FFFFFFE0
FFFFFF80
FFFFFF80
ENDCHAR
STARTCHAR X
ENCODING 88
SWIDTH 1000 0
DWIDTH 20 0
BBX 17 17 1 0
BITMAP
FE3F80
FE3F80
FE3F80
FE3F80
FE3F80
FE3F80
FE3F80
3FFE00
3FFE00
3FFE00
FE3F80
FE3F80
FE3F80
FE3F80
FE3F80
FE3F80
FE3F80
ENDCHAR
STARTCHAR Y
ENCODING 89
SWIDTH 1000 0
DWIDTH 20 0
BBX 17 17 1 0
BITMAP
FE3F80
FE3F80
FE3F80
FE3F80
FE3F80
FE3F80
FE3F80
FFFF80
FFFF80
3FFE00
07F000
07F000
07F000
07F000
07F000
07F000
07F000
ENDCHAR
STARTCHAR Z
ENCODING 90
SWIDTH 1000 0
DWIDTH 20 0
BBX 17 17 1 0
BITMAP
FFFF80
FFFF80
FFFF80
003F80
003F80
003F80
003F80
3FFF80
3FFF80
FFFE00
FE0000
FE0000
FE0000
FE0000
FFFF80
FFFF80
FFFF80
ENDCHAR
STARTCHAR bracketleft
ENCODING 91
SWIDTH 500 0
DWIDTH 10 0
BBX 10 17 0 0
BITMAP
FFC0
FFC0
FFC0
FE00
FE00
FE00
FE00
FE00
FE00
FE00
FE00
FE00
FE00
FE00
FFC0
FFC0
FFC0
ENDCHAR
STARTCHAR bracketright
ENCODING 93
SWIDTH 500 0
DWIDTH 10 0
BBX 10 17 0 0
BITMAP
FFC0
FFC0
FFC0
1FC0
1FC0
1FC0
1FC0
1FC0
1FC0
1FC0
1FC0
1FC0
1FC0
1FC0
FFC0
FFC0
FFC0
ENDCHAR
STARTCHAR a
ENCODING 97
SWIDTH 1000 0
DWIDTH 20 0
BBX 17 17 0 0
BITMAP
3FFE00
3FFE00
FFFF80
FFFF80
FE3F80
FE3F80
FE3F80
FFFF80
FFFF80
FFFF80
FE3F80
FE3F80
FE3F80
FE3F80
FE3F80
FE3F80
FE3F80
ENDCHAR
STARTCHAR b
ENCODING 98
SWIDTH 1000 0
DWIDTH 20 0
BBX 17 17 0 0
BITMAP
FFFE00
FFFE00
FFFF80
FFFF80
FE3F80
FE3F80
FE3F80
FFFE00
FFFE00
FFFE00
FE3F80
FE3F80
FE3F80
FE3F80
FFFF80
FFFE00
FFFE00
ENDCHAR
STARTCHAR c
ENCODING 99
SWIDTH 1000 0
DWIDTH 20 0
BBX 17 17 0 0
BITMAP
3FFF80
3FFF80
FFFF80
FE0000
FE0000
FE0000
FE0000
FE0000
FE0000
FE0000
FE0000
FE0000
FE0000
FE0000
FFFF80
3FFF80
3FFF80
ENDCHAR
STARTCHAR d
ENCODING 100
SWIDTH 1000 0
DWIDTH 20 0
BBX 17 17 0 0
BITMAP
FFFE00
FFFE00
FFFF80
FFFF80
FE3F80
FE3F80
FE3F80
FE3F80
FE3F80
FE3F80
FE3F80
FE3F80
FE3F80
FE3F80
FFFF80
FFFE00
FFFE00
ENDCHAR
STARTCHAR e
ENCODING 101
SWIDTH 1000 0
DWIDTH 20 0
BBX 17 17 0 0
BITMAP
3FFF80
3FFF80
FFFF80
FE0000
FE0000
FE0000
FE0000
FFF000
FFF000
FFF000
FE0000
FE0000
FE0000
FE0000
FFFF80
3FFF80
3FFF80
ENDCHAR
STARTCHAR f
ENCODING 102
SWIDTH 1000 0
DWIDTH 20 0
BBX 17 17 0 0
BITMAP
3FFF80
3FFF80
FFFF80
FE0000
FE0000
FE0000
FE0000
FFF000
FFF000
FFF000
FE0000
FE0000
FE0000
FE0000
FE0000
FE0000
FE0000
ENDCHAR
STARTCHAR g
ENCODING 103
SWIDTH 1000 0
DWIDTH 20 0
BBX 17 17 0 0
BITMAP
3FFF80
3FFF80
FFFF80
FE0000
FE0000
FE0000
FE0000
FEFF80
FEFF80
FEFF80
FE3F80
FE3F80
FE3F80
FE3F80
FFFF80
3FFF80
3FFF80
ENDCHAR
STARTCHAR h
ENCODING 104
SWIDTH 1000 0
DWIDTH 20 0
BBX 17 17 0 0
BITMAP
FE3F80
FE3F80
FE3F80
FE3F80
FE3F80
FE3F80
FE3F80
FFFF80
FFFF80
FFFF80
FE3F80
FE3F80
FE3F80
FE3F80
FE3F80
FE3F80
FE3F80
ENDCHAR
STARTCHAR i
ENCODING 105
SWIDTH 500 0
DWIDTH 10 0
BBX 7 17 0 0
BITMAP
FE
FE
FE
FE
FE
FE
FE
FE
FE
FE
FE
FE
FE
FE
FE
FE
FE
ENDCHAR
STARTCHAR j
ENCODING 106
SWIDTH 1000 0
DWIDTH 20 0
BBX 17 17 0 0
BITMAP
003F80
003F80
003F80
003F80
003F80
003F80
003F80
003F80
003F80
003F80
003F80
003F80
003F80
003F80
FFFF80
FFFE00
FFFE00
ENDCHAR
STARTCHAR k
ENCODING 107
SWIDTH 1000 0
DWIDTH 20 0
BBX 17 17 0 0
BITMAP
FE3F80
FE3F80
FE3F80
FE3F80
FE3F80
FE3F80
FE3F80
FFFE00
FFFE00
FFFE00
FE3F80
FE3F80
FE3F80
FE3F80
FE3F80
FE3F80
FE3F80
ENDCHAR
STARTCHAR l
ENCODING 108
SWIDTH 1000 0
DWIDTH 20 0
BBX 17 17 0 0
BITMAP
FE0000
FE0000
FE0000
FE0000
FE0000
FE0000
FE0000
FE0000
FE0000
FE0000
FE0000
FE0000
FE0000
FE0000
FFFF80
FFFF80
FFFF80
ENDCHAR
STARTCHAR m
ENCODING 109
SWIDTH 1500 0
DWIDTH 30 0
BBX 27 17 0 0
BITMAP
FFFFFF80
FFFFFF80
FFFFFFE0
FFFFFFE0
FE3F8FE0
FE3F8FE0
FE3F8FE0
FE3F8FE0
FE3F8FE0
FE3F8FE0
FE3F8FE0
FE3F8FE0
FE3F8FE0
FE3F8FE0
FE3F8FE0
FE3F8FE0
FE3F8FE0
ENDCHAR
STARTCHAR n
ENCODING 110
SWIDTH 1000 0
DWIDTH 20 0
BBX 17 17 0 0
BITMAP
FFFE00
FFFE00
FFFF80
FFFF80
FE3F80
FE3F80
FE3F80
FE3F80
FE3F80
FE3F80
FE3F80
FE3F80
FE3F80
FE3F80
FE3F80
FE3F80
FE3F80
ENDCHAR
STARTCHAR o
ENCODING 111
SWIDTH 1000 0
DWIDTH 20 0
BBX 17 17 0 0
BITMAP
3FFE00
3FFE00
FFFF80
FFFF80
FE3F80
FE3F80
FE3F80
FE3F80
FE3F80
FE3F80
FE3F80
FE3F80
FE3F80
FE3F80
FFFF80
3FFE00
3FFE00
ENDCHAR
STARTCHAR p
ENCODING 112
SWIDTH 1000 0
DWIDTH 20 0
BBX 17 17 0 0
BITMAP
FFFE00
FFFE00
FFFF80
FFFF80
FE3F80
FE3F80
FE3F80
FFFF80
FFFF80
FFFE00
FE0000
FE0000
FE0000
FE0000
FE0000
FE0000
FE0000
ENDCHAR
STARTCHAR q
ENCODING 113
SWIDTH 1000 0
DWIDTH 20 0
BBX 17 17 0 0
BITMAP
3FFE00
3FFE00
FFFF80
FFFF80
FE3F80
FE3F80
FE3F80
FE3F80
FE3F80
FE3F80
FE3F80
FE3F80
FE3F80
FE3F80
FFFF80
3FFE00
3FFE00
ENDCHAR
STARTCHAR r
ENCODING 114
SWIDTH 1000 0
DWIDTH 20 0
BBX 17 17 0 0
BITMAP
FFFE00
FFFE00
FFFF80
FFFF80
FE3F80
FE3F80
FE3F80
FFFE00
FFFE00
FFFE00
FE3F80
FE3F80
FE3F80
FE3F80
FE3F80
FE3F80
FE3F80
ENDCHAR
STARTCHAR s
ENCODING 115
SWIDTH 1000 0
DWIDTH 20 0
BBX 17 17 0 0
BITMAP
3FFF80
3FFF80
FFFF80
FE0000
FE0000
FE0000
FE0000
FFFE00
FFFF80
3FFF80
003F80
003F80
003F80
003F80
FFFF80
FFFE00
FFFE00
ENDCHAR
STARTCHAR t
ENCODING 116
SWIDTH 1000 0
DWIDTH 20 0
BBX 17 17 0 0
BITMAP
FFFF80
FFFF80
FFFF80
07F000
07F000
07F000
07F000
07F000
07F000
07F000
07F000
07F000
07F000
07F000
07F000
07F000
07F000
ENDCHAR
STARTCHAR u
ENCODING 117
SWIDTH 1000 0
DWIDTH 20 0
BBX 17 17 0 0
BITMAP
FE3F80
FE3F80
FE3F80
FE3F80
FE3F80
FE3F80
FE3F80
FE3F80
FE3F80
FE3F80
FE3F80
FE3F80
FE3F80
FFFF80
FFFF80
3FFE00
3FFE00
ENDCHAR
STARTCHAR v
ENCODING 118
SWIDTH 1000 0
DWIDTH 20 0
BBX 17 17 0 0
BITMAP
FE3F80
FE3F80
FE3F80
FE3F80
FE3F80
FE3F80
FE3F80
FE3F80
FE3F80
FE3F80
FE3F80
FE3F80
FE3F80
FFFF80
FFFF80
FFFE00
FFFE00
ENDCHAR
STARTCHAR w
ENCODING 119
SWIDTH 1500 0
DWIDTH 30 0
BBX 27 17 0 0
BITMAP
FE3F8FE0
FE3F8FE0
FE3F8FE0
FE3F8FE0
FE3F8FE0
FE3F8FE0
FE3F8FE0
FE3F8FE0
FE3F8FE0
FE3F8FE0
FE3F8FE0
FE3F8FE0
FE3F8FE0
FFFFFFE0
FFFFFFE0
FFFFFF80
FFFFFF80
ENDCHAR
STARTCHAR x
ENCODING 120
SWIDTH 1000 0
DWIDTH 20 0
BBX 17 17 0 0
BITMAP
FE3F80
FE3F80
FE3F80
FE3F80
FE3F80
FE3F80
FE3F80
3FFE00
3FFE00
3FFE00
FE3F80
FE3F80
FE3F80
FE3F80
FE3F80
FE3F80
FE3F80
ENDCHAR
STARTCHAR y
ENCODING 121
SWIDTH 1000 0
DWIDTH 20 0
BBX 17 17 0 0
BITMAP
FE3F80
FE3F80
FE3F80
FE3F80
FE3F80
FE3F80
FE3F80
FFFF80
FFFF80
3FFE00
07F000
07F000
07F000
07F000
07F000
07F000
07F000
ENDCHAR
STARTCHAR z
ENCODING 122
SWIDTH 1000 0
DWIDTH 20 0
BBX 17 17 0 0
BITMAP
FFFF80
FFFF80
FFFF80
003F80
003F80
003F80
003F80
3FFF80
FFFF80
FFFE00
FE0000
FE0000
FE0000
FE0000
FFFF80
FFFF80
FFFF80
ENDCHAR
STARTCHAR .notdef
ENCODING -1
SWIDTH 500 0
DWIDTH 10 0
BBX 7 20 1 0
BITMAP
FE
82
82
82
82
82
82
82
82
82
82
82
82
82
82
82
82
82
82
FE
ENDCHAR
STARTCHAR NULL
ENCODING -1
SWIDTH 0 0
DWIDTH 0 0
BBX 1 1 0 0
BITMAP
00
ENDCHAR
STARTCHAR nonmarkingreturn
ENCODING -1
SWIDTH 500 0
DWIDTH 10 0
BBX 1 1 0 0
BITMAP
00
ENDCHAR
ENDFONT
